<svg xmlns="http://www.w3.org/2000/svg" xmlns:xlink="http://www.w3.org/1999/xlink" width="3000" zoomAndPan="magnify" viewBox="0 0 2250 2250.000011" height="3000" preserveAspectRatio="xMidYMid meet" version="1.0"><defs><g/><clipPath id="7d35220672"><path d="M 0.5 0 L 2249.5 0 L 2249.5 2249 L 0.5 2249 Z M 0.5 0 " clip-rule="nonzero"/></clipPath><clipPath id="54f6a9bfe4"><path d="M 1125 0 C 503.957031 0 0.5 503.457031 0.5 1124.5 C 0.5 1745.542969 503.957031 2249 1125 2249 C 1746.042969 2249 2249.5 1745.542969 2249.5 1124.5 C 2249.5 503.457031 1746.042969 0 1125 0 Z M 1125 0 " clip-rule="nonzero"/></clipPath><clipPath id="cc728c17c4"><path d="M 88.890625 685.4375 L 861.796875 685.4375 L 861.796875 1369.882812 L 88.890625 1369.882812 Z M 88.890625 685.4375 " clip-rule="nonzero"/></clipPath><clipPath id="aa026ec0e4"><path d="M 444 1493 L 1157 1493 L 1157 1683 L 444 1683 Z M 444 1493 " clip-rule="nonzero"/></clipPath><clipPath id="2ca8394226"><path d="M 833.277344 1888.890625 L 444.214844 1565.332031 L 767.773438 1176.269531 L 1156.835938 1499.828125 Z M 833.277344 1888.890625 " clip-rule="nonzero"/></clipPath><clipPath id="21d3b532b2"><path d="M 833.277344 1888.890625 L 444.214844 1565.332031 L 767.773438 1176.269531 L 1156.835938 1499.828125 Z M 833.277344 1888.890625 " clip-rule="nonzero"/></clipPath><clipPath id="09337dda53"><path d="M 1124 1241 L 1323 1241 L 1323 1528 L 1124 1528 Z M 1124 1241 " clip-rule="nonzero"/></clipPath><clipPath id="4485377eb3"><path d="M 1377.9375 1305.625 L 1127.957031 1529.914062 L 1068.878906 1464.070312 L 1318.859375 1239.78125 Z M 1377.9375 1305.625 " clip-rule="nonzero"/></clipPath><clipPath id="97fcc199ba"><path d="M 1377.9375 1305.625 L 1127.957031 1529.914062 L 1068.878906 1464.070312 L 1318.859375 1239.78125 Z M 1377.9375 1305.625 " clip-rule="nonzero"/></clipPath><clipPath id="0ace0c08c7"><path d="M 1124 1253 L 1324 1253 L 1324 1540 L 1124 1540 Z M 1124 1253 " clip-rule="nonzero"/></clipPath><clipPath id="64cc802c06"><path d="M 1378.683594 1317.628906 L 1128.703125 1541.917969 L 1069.628906 1476.074219 L 1319.609375 1251.785156 Z M 1378.683594 1317.628906 " clip-rule="nonzero"/></clipPath><clipPath id="1207ca4c27"><path d="M 1378.683594 1317.628906 L 1128.703125 1541.917969 L 1069.628906 1476.074219 L 1319.609375 1251.785156 Z M 1378.683594 1317.628906 " clip-rule="nonzero"/></clipPath><clipPath id="70e27e91d9"><path d="M 1185.261719 968.136719 L 1500.121094 968.136719 L 1500.121094 1282.996094 L 1185.261719 1282.996094 Z M 1185.261719 968.136719 " clip-rule="nonzero"/></clipPath><clipPath id="c6d2ac80c2"><path d="M 1342.691406 968.136719 C 1255.746094 968.136719 1185.261719 1038.621094 1185.261719 1125.566406 C 1185.261719 1212.511719 1255.746094 1282.996094 1342.691406 1282.996094 C 1429.640625 1282.996094 1500.121094 1212.511719 1500.121094 1125.566406 C 1500.121094 1038.621094 1429.640625 968.136719 1342.691406 968.136719 Z M 1342.691406 968.136719 " clip-rule="nonzero"/></clipPath><clipPath id="7b592391c8"><path d="M 1260.230469 1043.105469 L 1425.15625 1043.105469 L 1425.15625 1208.03125 L 1260.230469 1208.03125 Z M 1260.230469 1043.105469 " clip-rule="nonzero"/></clipPath><clipPath id="43fd5ebba2"><path d="M 1342.691406 1043.105469 C 1297.148438 1043.105469 1260.230469 1080.023438 1260.230469 1125.566406 C 1260.230469 1171.109375 1297.148438 1208.03125 1342.691406 1208.03125 C 1388.234375 1208.03125 1425.15625 1171.109375 1425.15625 1125.566406 C 1425.15625 1080.023438 1388.234375 1043.105469 1342.691406 1043.105469 Z M 1342.691406 1043.105469 " clip-rule="nonzero"/></clipPath><clipPath id="6b5bf5d81e"><path d="M 1599 965 L 1812 965 L 1812 1279 L 1599 1279 Z M 1599 965 " clip-rule="nonzero"/></clipPath><clipPath id="21b3e4d3b6"><path d="M 1752.082031 950.402344 L 1827.382812 992.378906 L 1659.316406 1293.882812 L 1584.011719 1251.90625 Z M 1752.082031 950.402344 " clip-rule="nonzero"/></clipPath><clipPath id="bfd6b0e2b2"><path d="M 1789.730469 971.390625 C 1810.527344 982.984375 1817.988281 1009.238281 1806.394531 1030.03125 L 1680.375 1256.105469 C 1668.785156 1276.898438 1642.53125 1284.359375 1621.734375 1272.769531 C 1600.941406 1261.175781 1593.480469 1234.921875 1605.074219 1214.128906 L 1731.09375 988.054688 C 1742.683594 967.261719 1768.9375 959.800781 1789.730469 971.390625 Z M 1789.730469 971.390625 " clip-rule="nonzero"/></clipPath><clipPath id="e6696670f5"><path d="M 1745 965 L 1960 965 L 1960 1281 L 1745 1281 Z M 1745 965 " clip-rule="nonzero"/></clipPath><clipPath id="c9e5117a00"><path d="M 1899.566406 950.402344 L 1974.867188 992.378906 L 1805.324219 1296.53125 L 1730.023438 1254.554688 Z M 1899.566406 950.402344 " clip-rule="nonzero"/></clipPath><clipPath id="f3f1c5e2d4"><path d="M 1937.214844 971.390625 C 1958.011719 982.984375 1965.472656 1009.238281 1953.878906 1030.03125 L 1826.472656 1258.589844 C 1814.882812 1279.386719 1788.628906 1286.847656 1767.832031 1275.253906 C 1747.039062 1263.664062 1739.578125 1237.410156 1751.171875 1216.617188 L 1878.578125 988.054688 C 1890.167969 967.261719 1916.421875 959.800781 1937.214844 971.390625 Z M 1937.214844 971.390625 " clip-rule="nonzero"/></clipPath><clipPath id="be88430f99"><path d="M 1501 968 L 1679 968 L 1679 1277 L 1501 1277 Z M 1501 968 " clip-rule="nonzero"/></clipPath><clipPath id="3d645d15db"><path d="M 1488.503906 987.539062 L 1568.382812 955.105469 L 1691.273438 1257.769531 L 1611.394531 1290.203125 Z M 1488.503906 987.539062 " clip-rule="nonzero"/></clipPath><clipPath id="1456792c84"><path d="M 1528.441406 971.320312 C 1550.5 962.363281 1575.640625 972.984375 1584.597656 995.042969 L 1674.984375 1217.652344 C 1683.941406 1239.710938 1673.320312 1264.851562 1651.261719 1273.808594 C 1629.203125 1282.765625 1604.0625 1272.144531 1595.105469 1250.085938 L 1504.71875 1027.476562 C 1495.765625 1005.417969 1506.386719 980.277344 1528.441406 971.320312 Z M 1528.441406 971.320312 " clip-rule="nonzero"/></clipPath><clipPath id="f16186731c"><path d="M 1925 967 L 2118 967 L 2118 1283 L 1925 1283 Z M 1925 967 " clip-rule="nonzero"/></clipPath><clipPath id="d709ab9e07"><path d="M 1911.722656 989.222656 L 1989.992188 953.085938 L 2131.859375 1260.367188 L 2053.585938 1296.503906 Z M 1911.722656 989.222656 " clip-rule="nonzero"/></clipPath><clipPath id="fb9e1c8221"><path d="M 1950.859375 971.152344 C 1972.472656 961.175781 1998.082031 970.605469 2008.0625 992.222656 L 2113.773438 1221.195312 C 2123.753906 1242.808594 2114.320312 1268.421875 2092.707031 1278.398438 C 2071.09375 1288.378906 2045.480469 1278.945312 2035.5 1257.332031 L 1929.789062 1028.359375 C 1919.8125 1006.742188 1929.242188 981.132812 1950.859375 971.152344 Z M 1950.859375 971.152344 " clip-rule="nonzero"/></clipPath><clipPath id="e82a7075b4"><path d="M 1881.304688 964.570312 L 2004.882812 964.570312 L 2004.882812 1051.246094 L 1881.304688 1051.246094 Z M 1881.304688 964.570312 " clip-rule="nonzero"/></clipPath><clipPath id="dbc336aa60"><path d="M 1881.304688 1007.910156 C 1881.304688 983.972656 1900.707031 964.570312 1924.640625 964.570312 L 1961.527344 964.570312 C 1985.460938 964.570312 2004.863281 983.972656 2004.863281 1007.910156 C 2004.863281 1031.84375 1985.460938 1051.246094 1961.527344 1051.246094 L 1924.640625 1051.246094 C 1900.707031 1051.246094 1881.304688 1031.84375 1881.304688 1007.910156 Z M 1881.304688 1007.910156 " clip-rule="nonzero"/></clipPath><clipPath id="a7497fbbfc"><path d="M 844 841 L 1053 841 L 1053 1276 L 844 1276 Z M 844 841 " clip-rule="nonzero"/></clipPath><clipPath id="6d1ca54f95"><path d="M 1063.851562 1258.796875 L 982.464844 1287.226562 L 832.640625 858.347656 L 914.03125 829.914062 Z M 1063.851562 1258.796875 " clip-rule="nonzero"/></clipPath><clipPath id="e47d5a3bea"><path d="M 1023.15625 1273.011719 C 1000.683594 1280.863281 976.097656 1269.007812 968.246094 1246.53125 L 846.90625 899.179688 C 839.054688 876.707031 850.910156 852.121094 873.386719 844.269531 C 895.859375 836.417969 920.445312 848.273438 928.296875 870.75 L 1049.636719 1218.101562 C 1057.488281 1240.574219 1045.632812 1265.160156 1023.15625 1273.011719 Z M 1023.15625 1273.011719 " clip-rule="nonzero"/></clipPath><clipPath id="f493beabb3"><path d="M 426 1397 L 567 1397 L 567 1538 L 426 1538 Z M 426 1397 " clip-rule="nonzero"/></clipPath><clipPath id="8aad9951b5"><path d="M 553.53125 1392.234375 L 572.082031 1410.789062 L 439.527344 1543.34375 L 420.976562 1524.789062 Z M 553.53125 1392.234375 " clip-rule="nonzero"/></clipPath><clipPath id="42c45bb083"><path d="M 562.808594 1401.511719 C 565.265625 1403.972656 566.648438 1407.308594 566.648438 1410.789062 C 566.648438 1414.269531 565.265625 1417.605469 562.808594 1420.066406 L 448.835938 1534.035156 C 446.375 1536.496094 443.039062 1537.878906 439.558594 1537.878906 C 436.082031 1537.878906 432.742188 1536.496094 430.28125 1534.035156 C 427.824219 1531.574219 426.441406 1528.238281 426.441406 1524.757812 C 426.441406 1521.277344 427.824219 1517.941406 430.28125 1515.480469 L 544.253906 1401.511719 C 546.714844 1399.050781 550.050781 1397.667969 553.53125 1397.667969 C 557.007812 1397.667969 560.347656 1399.050781 562.808594 1401.511719 Z M 562.808594 1401.511719 " clip-rule="nonzero"/></clipPath><clipPath id="7ac92320c0"><path d="M 313 1409 L 458 1409 L 458 1547 L 313 1547 Z M 313 1409 " clip-rule="nonzero"/></clipPath><clipPath id="e2bdba38db"><path d="M 462.550781 1533.140625 L 444.539062 1552.222656 L 308.226562 1423.535156 L 326.238281 1404.453125 Z M 462.550781 1533.140625 " clip-rule="nonzero"/></clipPath><clipPath id="7bd85e93b5"><path d="M 453.542969 1542.683594 C 451.15625 1545.210938 447.859375 1546.691406 444.382812 1546.789062 C 440.902344 1546.890625 437.527344 1545.605469 434.996094 1543.214844 L 317.796875 1432.570312 C 315.265625 1430.179688 313.789062 1426.886719 313.6875 1423.40625 C 313.589844 1419.929688 314.875 1416.554688 317.261719 1414.023438 C 319.652344 1411.496094 322.949219 1410.015625 326.425781 1409.917969 C 329.902344 1409.816406 333.277344 1411.101562 335.808594 1413.492188 L 453.011719 1524.136719 C 455.539062 1526.523438 457.015625 1529.820312 457.117188 1533.296875 C 457.21875 1536.777344 455.933594 1540.152344 453.542969 1542.683594 Z M 453.542969 1542.683594 " clip-rule="nonzero"/></clipPath><clipPath id="3afb6c3420"><path d="M 63.960938 663.347656 L 886.347656 663.347656 L 886.347656 1392.023438 L 63.960938 1392.023438 Z M 63.960938 663.347656 " clip-rule="nonzero"/></clipPath><clipPath id="29d5712881"><path d="M 141 1151 L 175 1151 L 175 1256 L 141 1256 Z M 141 1151 " clip-rule="nonzero"/></clipPath><clipPath id="a8e394fc36"><path d="M 111.09375 1214.425781 L 172.050781 1150.320312 L 215.511719 1191.644531 L 154.558594 1255.753906 Z M 111.09375 1214.425781 " clip-rule="nonzero"/></clipPath><clipPath id="c9dd5e2cf7"><path d="M 215.828125 1191.71875 L 154.875 1255.828125 L 111.410156 1214.5 L 172.367188 1150.394531 Z M 215.828125 1191.71875 " clip-rule="nonzero"/></clipPath><clipPath id="d0489cf028"><path d="M 143 1151 L 178 1151 L 178 1256 L 143 1256 Z M 143 1151 " clip-rule="nonzero"/></clipPath><clipPath id="9b1e8c4870"><path d="M 113.742188 1214.425781 L 174.699219 1150.320312 L 218.160156 1191.644531 L 157.207031 1255.753906 Z M 113.742188 1214.425781 " clip-rule="nonzero"/></clipPath><clipPath id="348e7491a4"><path d="M 218.476562 1191.71875 L 157.523438 1255.828125 L 114.058594 1214.5 L 175.015625 1150.394531 Z M 218.476562 1191.71875 " clip-rule="nonzero"/></clipPath><clipPath id="cfe92ff8a1"><path d="M 142 1124 L 211 1124 L 211 1191 L 142 1191 Z M 142 1124 " clip-rule="nonzero"/></clipPath><clipPath id="27c0d4e709"><path d="M 181.84375 1124.5 L 210.941406 1164.242188 L 161.882812 1200.160156 L 132.785156 1160.414062 Z M 181.84375 1124.5 " clip-rule="nonzero"/></clipPath><clipPath id="547ccb8a68"><path d="M 143.78125 1172.722656 C 144.578125 1175.269531 145.820312 1177.917969 147.484375 1180.191406 C 149.148438 1182.464844 151.140625 1184.367188 153.308594 1185.878906 C 153.363281 1185.902344 153.394531 1185.945312 153.445312 1185.972656 C 161.761719 1191.515625 173.164062 1191.734375 181.792969 1185.582031 L 210.941406 1164.242188 L 181.84375 1124.5 L 152.71875 1145.820312 C 144.179688 1152.238281 140.882812 1163.085938 143.78125 1172.722656 Z M 143.78125 1172.722656 " clip-rule="nonzero"/></clipPath><clipPath id="5b44fc2640"><path d="M 643 836 L 928 836 L 928 1279 L 643 1279 Z M 643 836 " clip-rule="nonzero"/></clipPath><clipPath id="06e99d2a2b"><path d="M 867.585938 821.359375 L 942.886719 863.335938 L 702.835938 1293.96875 L 627.535156 1251.996094 Z M 867.585938 821.359375 " clip-rule="nonzero"/></clipPath><clipPath id="2989d5f2ed"><path d="M 905.234375 842.347656 C 926.03125 853.9375 933.492188 880.191406 921.898438 900.984375 L 723.945312 1256.105469 C 712.355469 1276.898438 686.101562 1284.359375 665.304688 1272.765625 C 644.511719 1261.175781 637.050781 1234.921875 648.640625 1214.128906 L 846.597656 859.007812 C 858.1875 838.214844 884.441406 830.753906 905.234375 842.347656 Z M 905.234375 842.347656 " clip-rule="nonzero"/></clipPath><clipPath id="fba99b3862"><path d="M 407 1497 L 471 1497 L 471 1566 L 407 1566 Z M 407 1497 " clip-rule="nonzero"/></clipPath><clipPath id="eed8dbb1ad"><path d="M 479.28125 1560.296875 L 416.300781 1570.347656 L 406.085938 1506.367188 L 469.070312 1496.316406 Z M 479.28125 1560.296875 " clip-rule="nonzero"/></clipPath><clipPath id="0758f98038"><path d="M 447.808594 1565.320312 C 439.007812 1566.722656 430.304688 1562.296875 426.257812 1554.355469 L 408.933594 1520.359375 C 407.351562 1517.25 407.351562 1513.570312 408.933594 1510.460938 C 410.515625 1507.351562 413.488281 1505.1875 416.933594 1504.636719 L 458.261719 1498.039062 C 461.707031 1497.488281 465.207031 1498.621094 467.679688 1501.085938 C 470.152344 1503.546875 471.292969 1507.042969 470.757812 1510.492188 L 464.878906 1548.191406 C 463.503906 1556.996094 456.609375 1563.914062 447.808594 1565.320312 Z M 447.808594 1565.320312 " clip-rule="nonzero"/></clipPath><clipPath id="9026d8d8e8"><path d="M 968 836 L 1253 836 L 1253 1279 L 968 1279 Z M 968 836 " clip-rule="nonzero"/></clipPath><clipPath id="afa81766d7"><path d="M 1192.796875 821.359375 L 1268.097656 863.335938 L 1028.046875 1293.96875 L 952.746094 1251.996094 Z M 1192.796875 821.359375 " clip-rule="nonzero"/></clipPath><clipPath id="8cbfe4a927"><path d="M 1230.445312 842.347656 C 1251.242188 853.9375 1258.703125 880.191406 1247.109375 900.984375 L 1049.15625 1256.105469 C 1037.566406 1276.898438 1011.3125 1284.359375 990.515625 1272.765625 C 969.722656 1261.175781 962.261719 1234.921875 973.855469 1214.128906 L 1171.808594 859.007812 C 1183.398438 838.214844 1209.652344 830.753906 1230.445312 842.347656 Z M 1230.445312 842.347656 " clip-rule="nonzero"/></clipPath><clipPath id="55aea2bb51"><path d="M 448 1500 L 1162 1500 L 1162 1690 L 448 1690 Z M 448 1500 " clip-rule="nonzero"/></clipPath><clipPath id="5e956a5f81"><path d="M 837.777344 1895.875 L 448.710938 1572.316406 L 772.269531 1183.25 L 1161.335938 1506.8125 Z M 837.777344 1895.875 " clip-rule="nonzero"/></clipPath><clipPath id="8d22665431"><path d="M 837.777344 1895.875 L 448.710938 1572.316406 L 772.269531 1183.25 L 1161.335938 1506.8125 Z M 837.777344 1895.875 " clip-rule="nonzero"/></clipPath></defs><g clip-path="url(#7d35220672)"><g clip-path="url(#54f6a9bfe4)"><path fill="#06cbff" d="M 0.5 0 L 2249.5 0 L 2249.5 2249 L 0.5 2249 Z M 0.5 0 " fill-opacity="1" fill-rule="nonzero"/></g></g><g clip-path="url(#cc728c17c4)"><path fill="#b31b1b" d="M 475.179688 1369.964844 L 466.988281 1364.402344 C 466.0625 1363.785156 371.960938 1299.503906 279.253906 1210.660156 C 224.554688 1158.125 180.824219 1107.441406 149.304688 1059.851562 C 109.285156 998.972656 88.890625 942.574219 88.890625 892.511719 C 88.890625 778.476562 181.753906 685.613281 295.785156 685.613281 C 338.121094 685.613281 379.070312 698.59375 413.988281 723.316406 C 439.332031 741.238281 460.035156 764.109375 475.179688 790.375 C 490.320312 763.953125 511.027344 741.085938 536.367188 723.316406 C 571.285156 698.59375 612.234375 685.613281 654.570312 685.613281 C 768.601562 685.613281 861.46875 778.476562 861.46875 892.511719 L 861.46875 892.664062 C 861.003906 942.417969 840.453125 998.355469 800.277344 1059.078125 C 768.757812 1106.667969 725.183594 1157.351562 670.484375 1210.039062 C 577.929688 1299.195312 484.292969 1363.785156 483.367188 1364.402344 Z M 295.785156 714.507812 C 197.667969 714.507812 117.785156 794.394531 117.785156 892.511719 C 117.785156 936.855469 136.480469 987.691406 173.410156 1043.628906 C 203.539062 1089.363281 245.875 1138.5 299.03125 1189.488281 C 374.28125 1261.648438 450.609375 1317.429688 475.179688 1334.734375 C 499.746094 1317.273438 575.613281 1261.183594 650.707031 1188.871094 C 703.707031 1137.726562 745.890625 1088.746094 776.175781 1043.007812 C 813.105469 987.074219 832.109375 936.546875 832.417969 892.511719 C 832.417969 794.394531 752.535156 714.664062 654.417969 714.664062 C 581.640625 714.664062 515.042969 760.707031 488.464844 829.3125 L 475.023438 864.234375 L 461.734375 829.3125 C 435.160156 760.707031 368.5625 714.507812 295.785156 714.507812 Z M 295.785156 714.507812 " fill-opacity="1" fill-rule="nonzero"/></g><path stroke-linecap="butt" transform="matrix(-0.53646, 0.523651, -0.523651, -0.53646, 722.802546, 1249.000599)" fill="none" stroke-linejoin="miter" d="M -0.000792583 3.502755 L 294.831056 3.499742 " stroke="#b31b1b" stroke-width="7" stroke-opacity="1" stroke-miterlimit="4"/><g clip-path="url(#aa026ec0e4)"><g clip-path="url(#2ca8394226)"><g clip-path="url(#21d3b532b2)"><path fill="#b31b1b" d="M 450.195312 1558.097656 C 660.753906 1733.203125 974.527344 1704.359375 1149.636719 1493.800781 L 1156.78125 1499.746094 C 1151.492188 1506.121094 1146.046875 1512.359375 1140.453125 1518.460938 C 1134.855469 1524.566406 1129.109375 1530.53125 1123.21875 1536.355469 C 1117.328125 1542.175781 1111.300781 1547.851562 1105.132812 1553.375 C 1098.960938 1558.902344 1092.660156 1564.273438 1086.226562 1569.492188 C 1079.792969 1574.707031 1073.238281 1579.761719 1066.554688 1584.65625 C 1059.875 1589.550781 1053.078125 1594.277344 1046.164062 1598.835938 C 1039.25 1603.398438 1032.226562 1607.785156 1025.097656 1612 C 1017.96875 1616.214844 1010.738281 1620.253906 1003.410156 1624.113281 C 996.082031 1627.972656 988.664062 1631.648438 981.15625 1635.144531 C 973.648438 1638.640625 966.058594 1641.949219 958.386719 1645.070312 C 950.714844 1648.191406 942.972656 1651.125 935.15625 1653.863281 C 927.339844 1656.605469 919.460938 1659.152344 911.519531 1661.507812 C 903.582031 1663.863281 895.585938 1666.019531 887.539062 1667.980469 C 879.492188 1669.941406 871.402344 1671.707031 863.269531 1673.269531 C 855.136719 1674.832031 846.96875 1676.195312 838.769531 1677.359375 C 830.570312 1678.519531 822.34375 1679.480469 814.097656 1680.238281 C 805.851562 1680.996094 797.589844 1681.550781 789.3125 1681.902344 C 781.039062 1682.257812 772.761719 1682.40625 764.480469 1682.351562 C 756.195312 1682.296875 747.921875 1682.035156 739.652344 1681.574219 C 731.382812 1681.113281 723.128906 1680.449219 714.890625 1679.582031 C 706.65625 1678.714844 698.445312 1677.644531 690.261719 1676.375 C 682.078125 1675.105469 673.929688 1673.632812 665.816406 1671.960938 C 657.703125 1670.292969 649.636719 1668.421875 641.617188 1666.355469 C 633.597656 1664.285156 625.632812 1662.023438 617.726562 1659.566406 C 609.816406 1657.105469 601.972656 1654.453125 594.195312 1651.609375 C 586.414062 1648.765625 578.710938 1645.730469 571.082031 1642.507812 C 563.453125 1639.285156 555.90625 1635.875 548.445312 1632.28125 C 540.984375 1628.6875 533.613281 1624.914062 526.339844 1620.957031 C 519.0625 1617 511.886719 1612.867188 504.8125 1608.558594 C 497.742188 1604.25 490.777344 1599.769531 483.925781 1595.117188 C 477.070312 1590.46875 470.335938 1585.652344 463.722656 1580.667969 C 457.105469 1575.6875 450.613281 1570.546875 444.25 1565.246094 " fill-opacity="1" fill-rule="nonzero"/></g></g></g><g clip-path="url(#09337dda53)"><g clip-path="url(#4485377eb3)"><g clip-path="url(#97fcc199ba)"><path fill="#b31b1b" d="M 1319.890625 1242.359375 C 1318.246094 1241.59375 1316.371094 1241.933594 1315.101562 1243.074219 C 1314.671875 1243.460938 1314.3125 1243.9375 1314.054688 1244.492188 C 1266.71875 1346.480469 1203.199219 1439.277344 1125.253906 1520.3125 C 1123.574219 1522.0625 1123.625 1524.84375 1125.375 1526.527344 C 1127.125 1528.207031 1129.921875 1528.148438 1131.589844 1526.40625 C 1170.539062 1485.910156 1206.449219 1441.761719 1238.332031 1395.1875 C 1270.210938 1348.613281 1298.371094 1299.15625 1322.023438 1248.191406 C 1323.046875 1245.992188 1322.089844 1243.378906 1319.890625 1242.359375 Z M 1319.890625 1242.359375 " fill-opacity="1" fill-rule="nonzero"/></g></g></g><g clip-path="url(#0ace0c08c7)"><g clip-path="url(#64cc802c06)"><g clip-path="url(#1207ca4c27)"><path fill="#b31b1b" d="M 1320.636719 1254.359375 C 1318.996094 1253.597656 1317.121094 1253.9375 1315.851562 1255.074219 C 1315.421875 1255.460938 1315.0625 1255.9375 1314.804688 1256.496094 C 1267.46875 1358.480469 1203.949219 1451.28125 1126.003906 1532.316406 C 1124.324219 1534.0625 1124.375 1536.84375 1126.125 1538.527344 C 1127.875 1540.210938 1130.671875 1540.152344 1132.335938 1538.40625 C 1171.285156 1497.914062 1207.199219 1453.765625 1239.078125 1407.191406 C 1270.960938 1360.617188 1299.121094 1311.160156 1322.773438 1260.195312 C 1323.796875 1257.992188 1322.839844 1255.382812 1320.636719 1254.359375 Z M 1320.636719 1254.359375 " fill-opacity="1" fill-rule="nonzero"/></g></g></g><g clip-path="url(#70e27e91d9)"><g clip-path="url(#c6d2ac80c2)"><path fill="#ffffff" d="M 1185.261719 968.136719 L 1500.121094 968.136719 L 1500.121094 1282.996094 L 1185.261719 1282.996094 Z M 1185.261719 968.136719 " fill-opacity="1" fill-rule="nonzero"/></g></g><g clip-path="url(#7b592391c8)"><g clip-path="url(#43fd5ebba2)"><path fill="#06cbff" d="M 1260.230469 1043.105469 L 1425.15625 1043.105469 L 1425.15625 1208.03125 L 1260.230469 1208.03125 Z M 1260.230469 1043.105469 " fill-opacity="1" fill-rule="nonzero"/></g></g><g clip-path="url(#6b5bf5d81e)"><g clip-path="url(#21b3e4d3b6)"><g clip-path="url(#bfd6b0e2b2)"><path fill="#ffffff" d="M 1752.082031 950.402344 L 1827.382812 992.378906 L 1659.316406 1293.882812 L 1584.011719 1251.90625 Z M 1752.082031 950.402344 " fill-opacity="1" fill-rule="nonzero"/></g></g></g><g clip-path="url(#e6696670f5)"><g clip-path="url(#c9e5117a00)"><g clip-path="url(#f3f1c5e2d4)"><path fill="#ffffff" d="M 1899.566406 950.402344 L 1974.867188 992.378906 L 1805.488281 1296.238281 L 1730.1875 1254.261719 Z M 1899.566406 950.402344 " fill-opacity="1" fill-rule="nonzero"/></g></g></g><g clip-path="url(#be88430f99)"><g clip-path="url(#3d645d15db)"><g clip-path="url(#1456792c84)"><path fill="#ffffff" d="M 1488.503906 987.539062 L 1568.382812 955.105469 L 1691.144531 1257.457031 L 1611.265625 1289.890625 Z M 1488.503906 987.539062 " fill-opacity="1" fill-rule="nonzero"/></g></g></g><g clip-path="url(#f16186731c)"><g clip-path="url(#d709ab9e07)"><g clip-path="url(#fb9e1c8221)"><path fill="#ffffff" d="M 1911.722656 989.222656 L 1989.992188 953.085938 L 2131.859375 1260.367188 L 2053.585938 1296.503906 Z M 1911.722656 989.222656 " fill-opacity="1" fill-rule="nonzero"/></g></g></g><g clip-path="url(#e82a7075b4)"><g clip-path="url(#dbc336aa60)"><path fill="#ffffff" d="M 1881.304688 1051.246094 L 1881.304688 964.570312 L 2004.882812 964.570312 L 2004.882812 1051.246094 Z M 1881.304688 1051.246094 " fill-opacity="1" fill-rule="nonzero"/></g></g><g clip-path="url(#a7497fbbfc)"><g clip-path="url(#6d1ca54f95)"><g clip-path="url(#e47d5a3bea)"><path fill="#ffffff" d="M 1063.851562 1258.796875 L 982.464844 1287.226562 L 832.640625 858.347656 L 914.03125 829.914062 Z M 1063.851562 1258.796875 " fill-opacity="1" fill-rule="nonzero"/></g></g></g><g clip-path="url(#f493beabb3)"><g clip-path="url(#8aad9951b5)"><g clip-path="url(#42c45bb083)"><path fill="#ffffff" d="M 553.53125 1392.234375 L 572.082031 1410.789062 L 439.527344 1543.34375 L 420.976562 1524.789062 Z M 553.53125 1392.234375 " fill-opacity="1" fill-rule="nonzero"/></g></g></g><g clip-path="url(#7ac92320c0)"><g clip-path="url(#e2bdba38db)"><g clip-path="url(#7bd85e93b5)"><path fill="#ffffff" d="M 462.550781 1533.140625 L 444.539062 1552.222656 L 308.226562 1423.535156 L 326.238281 1404.453125 Z M 462.550781 1533.140625 " fill-opacity="1" fill-rule="nonzero"/></g></g></g><g clip-path="url(#3afb6c3420)"><path fill="#b31b1b" d="M 475.179688 1392.042969 L 466.460938 1386.125 C 465.472656 1385.464844 365.300781 1317.039062 266.609375 1222.460938 C 208.382812 1166.535156 161.832031 1112.582031 128.277344 1061.921875 C 85.675781 997.113281 63.960938 937.074219 63.960938 883.78125 C 63.960938 762.390625 162.820312 663.535156 284.210938 663.535156 C 329.277344 663.535156 372.867188 677.351562 410.042969 703.667969 C 437.015625 722.75 459.058594 747.09375 475.179688 775.058594 C 491.296875 746.929688 513.339844 722.585938 540.316406 703.667969 C 577.488281 677.351562 621.078125 663.535156 666.148438 663.535156 C 787.539062 663.535156 886.394531 762.390625 886.394531 883.78125 L 886.394531 883.945312 C 885.898438 936.910156 864.023438 996.457031 821.257812 1061.097656 C 787.703125 1111.761719 741.316406 1165.710938 683.089844 1221.800781 C 584.5625 1316.710938 484.882812 1385.464844 483.894531 1386.125 Z M 284.210938 694.292969 C 179.761719 694.292969 94.722656 779.332031 94.722656 883.78125 C 94.722656 930.988281 114.625 985.105469 153.9375 1044.648438 C 186.011719 1093.335938 231.082031 1145.644531 287.664062 1199.925781 C 367.769531 1276.738281 449.023438 1336.121094 475.179688 1354.542969 C 501.332031 1335.953125 582.09375 1276.246094 662.035156 1199.265625 C 718.453125 1144.820312 763.359375 1092.679688 795.597656 1043.992188 C 834.910156 984.449219 855.140625 930.660156 855.46875 883.78125 C 855.46875 779.332031 770.429688 694.457031 665.980469 694.457031 C 588.507812 694.457031 517.617188 743.476562 489.324219 816.507812 L 475.011719 853.679688 L 460.867188 816.507812 C 432.578125 743.476562 361.683594 694.292969 284.210938 694.292969 Z M 284.210938 694.292969 " fill-opacity="1" fill-rule="nonzero"/></g><path stroke-linecap="butt" transform="matrix(0.530829, 0.529359, -0.529359, 0.530829, 157.200294, 1250.701539)" fill="none" stroke-linejoin="miter" d="M -0.00068324 3.499089 L 305.023365 3.501834 " stroke="#b31b1b" stroke-width="7" stroke-opacity="1" stroke-miterlimit="4"/><g clip-path="url(#29d5712881)"><g clip-path="url(#a8e394fc36)"><g clip-path="url(#c9dd5e2cf7)"><path fill="#b31b1b" d="M 155.484375 1254.898438 C 156.148438 1254.460938 156.335938 1253.566406 155.898438 1252.898438 C 145.761719 1237.460938 141.847656 1218.1875 145.15625 1200.019531 C 148.464844 1181.847656 158.921875 1165.191406 173.847656 1154.316406 C 174.492188 1153.847656 174.636719 1152.945312 174.164062 1152.300781 C 173.695312 1151.65625 172.792969 1151.515625 172.148438 1151.984375 C 168.519531 1154.628906 165.144531 1157.601562 162.058594 1160.847656 C 151.949219 1171.476562 144.953125 1185.03125 142.316406 1199.5 C 138.875 1218.390625 142.949219 1238.433594 153.484375 1254.484375 C 153.921875 1255.148438 154.816406 1255.335938 155.484375 1254.898438 Z M 155.484375 1254.898438 " fill-opacity="1" fill-rule="nonzero"/></g></g></g><g clip-path="url(#d0489cf028)"><g clip-path="url(#9b1e8c4870)"><g clip-path="url(#348e7491a4)"><path fill="#b31b1b" d="M 158.132812 1254.898438 C 158.800781 1254.460938 158.984375 1253.566406 158.546875 1252.898438 C 148.410156 1237.460938 144.496094 1218.1875 147.804688 1200.019531 C 151.113281 1181.847656 161.570312 1165.191406 176.5 1154.316406 C 177.144531 1153.847656 177.285156 1152.945312 176.816406 1152.300781 C 176.34375 1151.65625 175.441406 1151.515625 174.800781 1151.984375 C 171.167969 1154.628906 167.792969 1157.601562 164.707031 1160.847656 C 154.597656 1171.476562 147.601562 1185.03125 144.964844 1199.5 C 141.523438 1218.390625 145.597656 1238.433594 156.136719 1254.484375 C 156.574219 1255.148438 157.46875 1255.335938 158.132812 1254.898438 Z M 158.132812 1254.898438 " fill-opacity="1" fill-rule="nonzero"/></g></g></g><g clip-path="url(#cfe92ff8a1)"><g clip-path="url(#27c0d4e709)"><g clip-path="url(#547ccb8a68)"><path fill="#000000" d="M 181.84375 1124.5 L 210.941406 1164.242188 L 162.035156 1200.046875 L 132.941406 1160.300781 Z M 181.84375 1124.5 " fill-opacity="1" fill-rule="nonzero"/></g></g></g><g clip-path="url(#5b44fc2640)"><g clip-path="url(#06e99d2a2b)"><g clip-path="url(#2989d5f2ed)"><path fill="#ffffff" d="M 867.585938 821.359375 L 942.886719 863.335938 L 703 1293.675781 L 627.699219 1251.699219 Z M 867.585938 821.359375 " fill-opacity="1" fill-rule="nonzero"/></g></g></g><g clip-path="url(#fba99b3862)"><g clip-path="url(#eed8dbb1ad)"><g clip-path="url(#0758f98038)"><path fill="#000000" d="M 483.28125 1559.65625 L 412.300781 1570.984375 L 402.089844 1507.003906 L 473.066406 1495.675781 Z M 483.28125 1559.65625 " fill-opacity="1" fill-rule="nonzero"/></g></g></g><g clip-path="url(#9026d8d8e8)"><g clip-path="url(#afa81766d7)"><g clip-path="url(#8cbfe4a927)"><path fill="#ffffff" d="M 1192.796875 821.359375 L 1268.097656 863.335938 L 1028.210938 1293.675781 L 952.910156 1251.699219 Z M 1192.796875 821.359375 " fill-opacity="1" fill-rule="nonzero"/></g></g></g><g fill="#ffffff" fill-opacity="1"><g transform="translate(1386.176953, 1401.62983)"><g><path d="M 5.6875 0 L 5.6875 -65.421875 L 19.515625 -65.421875 L 19.515625 -38.421875 L 47.59375 -38.421875 L 47.59375 -65.421875 L 61.390625 -65.421875 L 61.390625 0 L 47.59375 0 L 47.59375 -27.03125 L 19.515625 -27.03125 L 19.515625 0 Z M 5.6875 0 "/></g></g></g><g fill="#ffffff" fill-opacity="1"><g transform="translate(1453.295729, 1401.62983)"><g><path d="M 27.59375 0.953125 C 22.632812 0.953125 18.347656 -0.101562 14.734375 -2.21875 C 11.128906 -4.34375 8.347656 -7.300781 6.390625 -11.09375 C 4.429688 -14.894531 3.453125 -19.3125 3.453125 -24.34375 C 3.453125 -29.40625 4.429688 -33.835938 6.390625 -37.640625 C 8.347656 -41.441406 11.128906 -44.398438 14.734375 -46.515625 C 18.347656 -48.640625 22.632812 -49.703125 27.59375 -49.703125 C 32.5625 -49.703125 36.847656 -48.640625 40.453125 -46.515625 C 44.066406 -44.398438 46.851562 -41.441406 48.8125 -37.640625 C 50.769531 -33.835938 51.75 -29.40625 51.75 -24.34375 C 51.75 -19.3125 50.769531 -14.894531 48.8125 -11.09375 C 46.851562 -7.300781 44.066406 -4.34375 40.453125 -2.21875 C 36.847656 -0.101562 32.5625 0.953125 27.59375 0.953125 Z M 27.65625 -9.578125 C 31.019531 -9.578125 33.570312 -10.984375 35.3125 -13.796875 C 37.050781 -16.609375 37.921875 -20.15625 37.921875 -24.4375 C 37.921875 -28.71875 37.050781 -32.269531 35.3125 -35.09375 C 33.570312 -37.914062 31.019531 -39.328125 27.65625 -39.328125 C 24.226562 -39.328125 21.640625 -37.914062 19.890625 -35.09375 C 18.148438 -32.269531 17.28125 -28.71875 17.28125 -24.4375 C 17.28125 -20.15625 18.148438 -16.609375 19.890625 -13.796875 C 21.640625 -10.984375 24.226562 -9.578125 27.65625 -9.578125 Z M 27.65625 -9.578125 "/></g></g></g><g fill="#ffffff" fill-opacity="1"><g transform="translate(1508.498606, 1401.62983)"><g><path d="M 46.25 -35.078125 L 33.796875 -34.3125 C 33.453125 -35.882812 32.585938 -37.234375 31.203125 -38.359375 C 29.816406 -39.492188 27.945312 -40.0625 25.59375 -40.0625 C 23.476562 -40.0625 21.691406 -39.617188 20.234375 -38.734375 C 18.773438 -37.847656 18.054688 -36.671875 18.078125 -35.203125 C 18.054688 -34.023438 18.519531 -33.03125 19.46875 -32.21875 C 20.414062 -31.414062 22.03125 -30.769531 24.3125 -30.28125 L 33.1875 -28.5 C 42.625 -26.5625 47.351562 -22.128906 47.375 -15.203125 C 47.375 -11.984375 46.429688 -9.160156 44.546875 -6.734375 C 42.660156 -4.304688 40.078125 -2.414062 36.796875 -1.0625 C 33.515625 0.28125 29.753906 0.953125 25.515625 0.953125 C 19.023438 0.953125 13.851562 -0.398438 10 -3.109375 C 6.144531 -5.828125 3.898438 -9.53125 3.265625 -14.21875 L 16.640625 -14.921875 C 17.066406 -12.921875 18.050781 -11.40625 19.59375 -10.375 C 21.132812 -9.351562 23.125 -8.84375 25.5625 -8.84375 C 27.9375 -8.84375 29.851562 -9.3125 31.3125 -10.25 C 32.78125 -11.1875 33.523438 -12.378906 33.546875 -13.828125 C 33.472656 -16.253906 31.375 -17.882812 27.25 -18.71875 L 18.75 -20.40625 C 9.25 -22.300781 4.519531 -26.976562 4.5625 -34.4375 C 4.539062 -39.164062 6.429688 -42.890625 10.234375 -45.609375 C 14.035156 -48.335938 19.078125 -49.703125 25.359375 -49.703125 C 31.554688 -49.703125 36.4375 -48.390625 40 -45.765625 C 43.570312 -43.148438 45.65625 -39.585938 46.25 -35.078125 Z M 46.25 -35.078125 "/></g></g></g><g fill="#ffffff" fill-opacity="1"><g transform="translate(1559.037353, 1401.62983)"><g><path d="M 5.4375 18.40625 L 5.4375 -49.0625 L 18.84375 -49.0625 L 18.84375 -40.828125 L 19.453125 -40.828125 C 20.066406 -42.171875 20.9375 -43.519531 22.0625 -44.875 C 23.195312 -46.238281 24.691406 -47.382812 26.546875 -48.3125 C 28.398438 -49.238281 30.6875 -49.703125 33.40625 -49.703125 C 37.007812 -49.703125 40.3125 -48.769531 43.3125 -46.90625 C 46.3125 -45.039062 48.722656 -42.238281 50.546875 -38.5 C 52.367188 -34.769531 53.28125 -30.09375 53.28125 -24.46875 C 53.28125 -19 52.394531 -14.382812 50.625 -10.625 C 48.863281 -6.863281 46.476562 -4.019531 43.46875 -2.09375 C 40.46875 -0.164062 37.101562 0.796875 33.375 0.796875 C 30.738281 0.796875 28.5 0.359375 26.65625 -0.515625 C 24.8125 -1.390625 23.304688 -2.488281 22.140625 -3.8125 C 20.984375 -5.144531 20.085938 -6.492188 19.453125 -7.859375 L 19.03125 -7.859375 L 19.03125 18.40625 Z M 18.75 -24.53125 C 18.75 -20.164062 19.648438 -16.65625 21.453125 -14 C 23.253906 -11.351562 25.789062 -10.03125 29.0625 -10.03125 C 32.40625 -10.03125 34.960938 -11.375 36.734375 -14.0625 C 38.503906 -16.757812 39.390625 -20.25 39.390625 -24.53125 C 39.390625 -28.789062 38.507812 -32.242188 36.75 -34.890625 C 34.988281 -37.546875 32.425781 -38.875 29.0625 -38.875 C 25.769531 -38.875 23.226562 -37.578125 21.4375 -34.984375 C 19.644531 -32.398438 18.75 -28.914062 18.75 -24.53125 Z M 18.75 -24.53125 "/></g></g></g><g fill="#ffffff" fill-opacity="1"><g transform="translate(1615.933375, 1401.62983)"><g><path d="M 5.4375 0 L 5.4375 -49.0625 L 19.03125 -49.0625 L 19.03125 0 Z M 12.265625 -55.390625 C 10.265625 -55.390625 8.539062 -56.066406 7.09375 -57.421875 C 5.644531 -58.773438 4.921875 -60.398438 4.921875 -62.296875 C 4.921875 -64.191406 5.644531 -65.804688 7.09375 -67.140625 C 8.539062 -68.484375 10.265625 -69.15625 12.265625 -69.15625 C 14.285156 -69.15625 16.019531 -68.484375 17.46875 -67.140625 C 18.914062 -65.804688 19.640625 -64.191406 19.640625 -62.296875 C 19.640625 -60.398438 18.914062 -58.773438 17.46875 -57.421875 C 16.019531 -56.066406 14.285156 -55.390625 12.265625 -55.390625 Z M 12.265625 -55.390625 "/></g></g></g><g fill="#ffffff" fill-opacity="1"><g transform="translate(1640.404088, 1401.62983)"><g><path d="M 31.53125 -49.0625 L 31.53125 -38.84375 L 22.296875 -38.84375 L 22.296875 -15.078125 C 22.296875 -13.203125 22.722656 -11.929688 23.578125 -11.265625 C 24.429688 -10.609375 25.535156 -10.28125 26.890625 -10.28125 C 27.535156 -10.28125 28.175781 -10.335938 28.8125 -10.453125 C 29.445312 -10.578125 29.9375 -10.671875 30.28125 -10.734375 L 32.421875 -0.609375 C 31.742188 -0.390625 30.785156 -0.140625 29.546875 0.140625 C 28.304688 0.429688 26.804688 0.609375 25.046875 0.671875 C 20.109375 0.878906 16.140625 -0.1875 13.140625 -2.53125 C 10.148438 -4.882812 8.664062 -8.46875 8.6875 -13.28125 L 8.6875 -38.84375 L 1.984375 -38.84375 L 1.984375 -49.0625 L 8.6875 -49.0625 L 8.6875 -60.828125 L 22.296875 -60.828125 L 22.296875 -49.0625 Z M 31.53125 -49.0625 "/></g></g></g><g fill="#ffffff" fill-opacity="1"><g transform="translate(1675.353138, 1401.62983)"><g><path d="M 19.421875 0.921875 C 14.734375 0.921875 10.84375 -0.300781 7.75 -2.75 C 4.664062 -5.195312 3.125 -8.847656 3.125 -13.703125 C 3.125 -17.367188 3.988281 -20.242188 5.71875 -22.328125 C 7.445312 -24.410156 9.707031 -25.9375 12.5 -26.90625 C 15.300781 -27.875 18.320312 -28.507812 21.5625 -28.8125 C 25.820312 -29.238281 28.863281 -29.6875 30.6875 -30.15625 C 32.519531 -30.625 33.4375 -31.644531 33.4375 -33.21875 L 33.4375 -33.40625 C 33.4375 -35.4375 32.800781 -37.003906 31.53125 -38.109375 C 30.269531 -39.210938 28.476562 -39.765625 26.15625 -39.765625 C 23.707031 -39.765625 21.757812 -39.234375 20.3125 -38.171875 C 18.863281 -37.109375 17.90625 -35.753906 17.4375 -34.109375 L 4.859375 -35.140625 C 5.796875 -39.609375 8.117188 -43.148438 11.828125 -45.765625 C 15.546875 -48.390625 20.34375 -49.703125 26.21875 -49.703125 C 29.863281 -49.703125 33.269531 -49.125 36.4375 -47.96875 C 39.613281 -46.820312 42.175781 -45.03125 44.125 -42.59375 C 46.070312 -40.15625 47.046875 -36.988281 47.046875 -33.09375 L 47.046875 0 L 34.140625 0 L 34.140625 -6.796875 L 33.765625 -6.796875 C 32.566406 -4.523438 30.78125 -2.671875 28.40625 -1.234375 C 26.039062 0.203125 23.046875 0.921875 19.421875 0.921875 Z M 23.3125 -8.46875 C 26.300781 -8.46875 28.753906 -9.332031 30.671875 -11.0625 C 32.585938 -12.800781 33.546875 -14.957031 33.546875 -17.53125 L 33.546875 -22.75 C 33.003906 -22.382812 32.175781 -22.0625 31.0625 -21.78125 C 29.945312 -21.507812 28.753906 -21.269531 27.484375 -21.0625 C 26.222656 -20.863281 25.085938 -20.691406 24.078125 -20.546875 C 21.691406 -20.203125 19.769531 -19.53125 18.3125 -18.53125 C 16.851562 -17.53125 16.125 -16.070312 16.125 -14.15625 C 16.125 -12.28125 16.800781 -10.863281 18.15625 -9.90625 C 19.507812 -8.945312 21.226562 -8.46875 23.3125 -8.46875 Z M 23.3125 -8.46875 "/></g></g></g><g fill="#ffffff" fill-opacity="1"><g transform="translate(1727.553081, 1401.62983)"><g><path d="M 19.03125 -65.421875 L 19.03125 0 L 5.4375 0 L 5.4375 -65.421875 Z M 19.03125 -65.421875 "/></g></g></g><g fill="#ffffff" fill-opacity="1"><g transform="translate(1752.023817, 1401.62983)"><g/></g></g><g fill="#ffffff" fill-opacity="1"><g transform="translate(1772.884631, 1401.62983)"><g><path d="M 5.6875 0 L 5.6875 -65.421875 L 31.5 -65.421875 C 36.457031 -65.421875 40.679688 -64.476562 44.171875 -62.59375 C 47.671875 -60.707031 50.335938 -58.097656 52.171875 -54.765625 C 54.015625 -51.429688 54.9375 -47.59375 54.9375 -43.25 C 54.9375 -38.90625 54 -35.078125 52.125 -31.765625 C 50.257812 -28.453125 47.550781 -25.863281 44 -24 C 40.457031 -22.132812 36.171875 -21.203125 31.140625 -21.203125 L 19.515625 -21.203125 L 19.515625 0 Z M 19.515625 -32.296875 L 28.90625 -32.296875 C 32.863281 -32.296875 35.816406 -33.3125 37.765625 -35.34375 C 39.722656 -37.375 40.703125 -40.007812 40.703125 -43.25 C 40.703125 -46.507812 39.722656 -49.132812 37.765625 -51.125 C 35.816406 -53.113281 32.84375 -54.109375 28.84375 -54.109375 L 19.515625 -54.109375 Z M 19.515625 -32.296875 "/></g></g></g><g fill="#ffffff" fill-opacity="1"><g transform="translate(1831.15434, 1401.62983)"><g><path d="M 51.171875 -49.0625 L 34.015625 0 L 18.6875 0 L 1.53125 -49.0625 L 15.90625 -49.0625 L 26.09375 -13.953125 L 26.609375 -13.953125 L 36.765625 -49.0625 Z M 51.171875 -49.0625 "/></g></g></g><g fill="#ffffff" fill-opacity="1"><g transform="translate(1883.865423, 1401.62983)"><g><path d="M 31.53125 -49.0625 L 31.53125 -38.84375 L 22.296875 -38.84375 L 22.296875 -15.078125 C 22.296875 -13.203125 22.722656 -11.929688 23.578125 -11.265625 C 24.429688 -10.609375 25.535156 -10.28125 26.890625 -10.28125 C 27.535156 -10.28125 28.175781 -10.335938 28.8125 -10.453125 C 29.445312 -10.578125 29.9375 -10.671875 30.28125 -10.734375 L 32.421875 -0.609375 C 31.742188 -0.390625 30.785156 -0.140625 29.546875 0.140625 C 28.304688 0.429688 26.804688 0.609375 25.046875 0.671875 C 20.109375 0.878906 16.140625 -0.1875 13.140625 -2.53125 C 10.148438 -4.882812 8.664062 -8.46875 8.6875 -13.28125 L 8.6875 -38.84375 L 1.984375 -38.84375 L 1.984375 -49.0625 L 8.6875 -49.0625 L 8.6875 -60.828125 L 22.296875 -60.828125 L 22.296875 -49.0625 Z M 31.53125 -49.0625 "/></g></g></g><g fill="#ffffff" fill-opacity="1"><g transform="translate(1918.814473, 1401.62983)"><g><path d="M 13.390625 0.828125 C 11.273438 0.828125 9.460938 0.0820312 7.953125 -1.40625 C 6.441406 -2.894531 5.695312 -4.703125 5.71875 -6.828125 C 5.695312 -8.921875 6.441406 -10.710938 7.953125 -12.203125 C 9.460938 -13.691406 11.273438 -14.4375 13.390625 -14.4375 C 15.429688 -14.4375 17.210938 -13.691406 18.734375 -12.203125 C 20.253906 -10.710938 21.023438 -8.921875 21.046875 -6.828125 C 21.023438 -4.703125 20.253906 -2.894531 18.734375 -1.40625 C 17.210938 0.0820312 15.429688 0.828125 13.390625 0.828125 Z M 13.390625 0.828125 "/></g></g></g><g fill="#ffffff" fill-opacity="1"><g transform="translate(1945.58532, 1401.62983)"><g/></g></g><g fill="#ffffff" fill-opacity="1"><g transform="translate(1966.446134, 1401.62983)"><g><path d="M 5.6875 0 L 5.6875 -65.421875 L 19.515625 -65.421875 L 19.515625 -11.40625 L 47.5625 -11.40625 L 47.5625 0 Z M 5.6875 0 "/></g></g></g><g fill="#ffffff" fill-opacity="1"><g transform="translate(2017.496045, 1401.62983)"><g><path d="M 31.53125 -49.0625 L 31.53125 -38.84375 L 22.296875 -38.84375 L 22.296875 -15.078125 C 22.296875 -13.203125 22.722656 -11.929688 23.578125 -11.265625 C 24.429688 -10.609375 25.535156 -10.28125 26.890625 -10.28125 C 27.535156 -10.28125 28.175781 -10.335938 28.8125 -10.453125 C 29.445312 -10.578125 29.9375 -10.671875 30.28125 -10.734375 L 32.421875 -0.609375 C 31.742188 -0.390625 30.785156 -0.140625 29.546875 0.140625 C 28.304688 0.429688 26.804688 0.609375 25.046875 0.671875 C 20.109375 0.878906 16.140625 -0.1875 13.140625 -2.53125 C 10.148438 -4.882812 8.664062 -8.46875 8.6875 -13.28125 L 8.6875 -38.84375 L 1.984375 -38.84375 L 1.984375 -49.0625 L 8.6875 -49.0625 L 8.6875 -60.828125 L 22.296875 -60.828125 L 22.296875 -49.0625 Z M 31.53125 -49.0625 "/></g></g></g><g fill="#ffffff" fill-opacity="1"><g transform="translate(2052.445095, 1401.62983)"><g><path d="M 23.515625 0.796875 C 19.785156 0.796875 16.414062 -0.164062 13.40625 -2.09375 C 10.40625 -4.019531 8.019531 -6.863281 6.25 -10.625 C 4.488281 -14.382812 3.609375 -19 3.609375 -24.46875 C 3.609375 -30.09375 4.519531 -34.769531 6.34375 -38.5 C 8.164062 -42.238281 10.582031 -45.039062 13.59375 -46.90625 C 16.601562 -48.769531 19.898438 -49.703125 23.484375 -49.703125 C 26.222656 -49.703125 28.515625 -49.238281 30.359375 -48.3125 C 32.203125 -47.382812 33.691406 -46.238281 34.828125 -44.875 C 35.972656 -43.519531 36.84375 -42.171875 37.4375 -40.828125 L 37.859375 -40.828125 L 37.859375 -65.421875 L 51.421875 -65.421875 L 51.421875 0 L 38.015625 0 L 38.015625 -7.859375 L 37.4375 -7.859375 C 36.820312 -6.492188 35.925781 -5.144531 34.75 -3.8125 C 33.582031 -2.488281 32.078125 -1.390625 30.234375 -0.515625 C 28.390625 0.359375 26.148438 0.796875 23.515625 0.796875 Z M 27.828125 -10.03125 C 31.097656 -10.03125 33.632812 -11.351562 35.4375 -14 C 37.238281 -16.65625 38.140625 -20.164062 38.140625 -24.53125 C 38.140625 -28.914062 37.242188 -32.398438 35.453125 -34.984375 C 33.671875 -37.578125 31.128906 -38.875 27.828125 -38.875 C 24.460938 -38.875 21.898438 -37.546875 20.140625 -34.890625 C 18.378906 -32.242188 17.5 -28.789062 17.5 -24.53125 C 17.5 -20.25 18.382812 -16.757812 20.15625 -14.0625 C 21.925781 -11.375 24.484375 -10.03125 27.828125 -10.03125 Z M 27.828125 -10.03125 "/></g></g></g><g fill="#ffffff" fill-opacity="1"><g transform="translate(2109.596709, 1401.62983)"><g><path d="M 13.390625 0.828125 C 11.273438 0.828125 9.460938 0.0820312 7.953125 -1.40625 C 6.441406 -2.894531 5.695312 -4.703125 5.71875 -6.828125 C 5.695312 -8.921875 6.441406 -10.710938 7.953125 -12.203125 C 9.460938 -13.691406 11.273438 -14.4375 13.390625 -14.4375 C 15.429688 -14.4375 17.210938 -13.691406 18.734375 -12.203125 C 20.253906 -10.710938 21.023438 -8.921875 21.046875 -6.828125 C 21.023438 -4.703125 20.253906 -2.894531 18.734375 -1.40625 C 17.210938 0.0820312 15.429688 0.828125 13.390625 0.828125 Z M 13.390625 0.828125 "/></g></g></g><g clip-path="url(#55aea2bb51)"><g clip-path="url(#5e956a5f81)"><g clip-path="url(#8d22665431)"><path fill="#b31b1b" d="M 454.695312 1565.078125 C 665.25 1740.1875 979.027344 1711.34375 1154.132812 1500.785156 L 1161.28125 1506.730469 C 1155.988281 1513.101562 1150.546875 1519.339844 1144.949219 1525.445312 C 1139.351562 1531.550781 1133.609375 1537.515625 1127.71875 1543.335938 C 1121.828125 1549.160156 1115.796875 1554.832031 1109.628906 1560.359375 C 1103.460938 1565.886719 1097.160156 1571.257812 1090.726562 1576.472656 C 1084.292969 1581.691406 1077.734375 1586.746094 1071.054688 1591.640625 C 1064.371094 1596.53125 1057.574219 1601.261719 1050.660156 1605.820312 C 1043.746094 1610.378906 1036.722656 1614.769531 1029.59375 1618.984375 C 1022.464844 1623.199219 1015.238281 1627.234375 1007.910156 1631.09375 C 1000.582031 1634.953125 993.164062 1638.632812 985.652344 1642.125 C 978.144531 1645.621094 970.554688 1648.929688 962.882812 1652.050781 C 955.210938 1655.175781 947.46875 1658.105469 939.652344 1660.847656 C 931.835938 1663.589844 923.960938 1666.136719 916.019531 1668.492188 C 908.078125 1670.84375 900.085938 1673.003906 892.039062 1674.964844 C 883.992188 1676.925781 875.902344 1678.6875 867.769531 1680.25 C 859.632812 1681.816406 851.46875 1683.179688 843.265625 1684.339844 C 835.066406 1685.503906 826.84375 1686.464844 818.597656 1687.222656 C 810.347656 1687.980469 802.085938 1688.535156 793.8125 1688.886719 C 785.539062 1689.238281 777.257812 1689.386719 768.976562 1689.332031 C 760.695312 1689.277344 752.417969 1689.019531 744.148438 1688.558594 C 735.878906 1688.097656 727.628906 1687.433594 719.390625 1686.566406 C 711.152344 1685.699219 702.941406 1684.628906 694.757812 1683.359375 C 686.574219 1682.085938 678.425781 1680.617188 670.316406 1678.945312 C 662.203125 1677.273438 654.136719 1675.40625 646.117188 1673.335938 C 638.097656 1671.269531 630.132812 1669.007812 622.222656 1666.546875 C 614.3125 1664.089844 606.472656 1661.4375 598.691406 1658.59375 C 590.914062 1655.746094 583.210938 1652.714844 575.582031 1649.492188 C 567.949219 1646.265625 560.40625 1642.859375 552.945312 1639.265625 C 545.480469 1635.671875 538.113281 1631.894531 530.835938 1627.9375 C 523.558594 1623.984375 516.386719 1619.851562 509.3125 1615.542969 C 502.238281 1611.234375 495.277344 1606.753906 488.421875 1602.101562 C 481.570312 1597.449219 474.835938 1592.632812 468.21875 1587.652344 C 461.601562 1582.667969 455.113281 1577.527344 448.75 1572.226562 " fill-opacity="1" fill-rule="nonzero"/></g></g></g></svg>